<?xml version="1.0" standalone="no"?>
<!DOCTYPE svg PUBLIC "-//W3C//DTD SVG 20010904//EN"
 "http://www.w3.org/TR/2001/REC-SVG-20010904/DTD/svg10.dtd">
<svg version="1.0" xmlns="http://www.w3.org/2000/svg"
 width="772.000000pt" height="772.000000pt" viewBox="0 0 772.000000 772.000000"
 preserveAspectRatio="xMidYMid meet">
<metadata>
Created by potrace 1.11, written by Peter Selinger 2001-2013
</metadata>
<g transform="translate(0.000000,772.000000) scale(0.100000,-0.100000)"
fill="#000000" stroke="none">
<path d="M2035 7191 c-33 -22 -100 -64 -150 -95 -49 -30 -101 -64 -114 -75
l-25 -19 51 -56 c82 -90 263 -331 263 -350 0 -4 -15 -6 -33 -6 -107 0 -318
-91 -464 -199 -147 -110 -225 -207 -268 -335 -12 -34 -36 -92 -54 -129 -42
-84 -52 -183 -27 -269 48 -167 273 -377 543 -507 l92 -45 -45 -55 c-124 -154
-280 -394 -364 -560 -62 -124 -168 -401 -205 -538 -120 -436 -138 -941 -49
-1393 44 -226 88 -366 191 -610 87 -205 226 -440 377 -638 129 -168 407 -442
582 -574 535 -401 1154 -609 1813 -608 821 1 1580 320 2146 901 557 572 857
1308 857 2099 0 692 -232 1344 -676 1900 -33 41 -121 137 -196 214 -322 330
-670 555 -1120 726 -470 178 -1060 227 -1575 130 -60 -12 -127 -24 -148 -27
l-38 -6 5 49 c13 123 16 301 6 424 -32 419 -144 589 -440 666 -92 25 -226 22
-315 -6 -158 -49 -313 -168 -427 -326 -32 -44 -32 -45 -44 -22 -16 32 -41 149
-49 228 -7 68 -26 150 -35 150 -3 0 -32 -18 -65 -39z"/>
</g>
</svg>
