<?xml version="1.0" encoding="UTF-8"?>
<svg width="1026px" height="354px" viewBox="0 0 1026 354" version="1.1" xmlns="http://www.w3.org/2000/svg" xmlns:xlink="http://www.w3.org/1999/xlink">
    <defs>
        <linearGradient x1="50%" y1="0%" x2="50%" y2="100%" id="linearGradient-1">
            <stop stop-color="#A0DCE8" offset="0%"></stop>
            <stop stop-color="#9BDEE8" offset="100%"></stop>
        </linearGradient>
        <linearGradient x1="50%" y1="0%" x2="50%" y2="100%" id="linearGradient-2">
            <stop stop-color="#9AD8E8" offset="0%"></stop>
            <stop stop-color="#9BE3E8" offset="100%"></stop>
        </linearGradient>
        <linearGradient x1="50%" y1="0%" x2="50%" y2="100%" id="linearGradient-3">
            <stop stop-color="#FFFFFC" offset="0%"></stop>
            <stop stop-color="#FFFFFF" offset="100%"></stop>
        </linearGradient>
        <path d="M1026,218.00749 C975.281034,218.514237 931.56606,244.68813 910.830753,282.46564 C887.485146,274.496141 861.03017,270 833,270 C769.480919,270 714.05077,293.088559 684.5625,327.363714 C664.386315,293.088559 626.460424,270 583,270 C551.712794,270 523.293902,281.96582 502.300733,301.456907 C481.380707,295.37392 458.281369,292 434,292 C387.996263,292 346.235487,304.11085 315.499966,323.811022 C292.639325,291.502672 251.922195,270 205.5,270 C190.220397,270 175.558859,272.329513 161.948681,276.607105 C132.355221,254.094639 90.0166486,240 43,240 C28.1122387,240 13.6935312,241.413219 -1.70530257e-12,244.059422 L8.24229573e-13,408.970289 L7.95807864e-13,354 L1026,354 L1026,399.996257 L1026,218.007365 Z" id="path-4"></path>
    </defs>
    <g id="Symbols" stroke="none" stroke-width="1" fill="none" fill-rule="evenodd">
        <g id="clouds">
            <g>
                <path d="M-1.88649096e-12,214.772393 C2.97341408,214.923299 5.97454403,215 9,215 C19.7650296,215 30.2220813,214.02893 40.2184491,212.199249 C40.0735527,213.455881 40,214.723204 40,216 C40,248.5848 87.9055318,275 147,275 C147,307.5848 194.905532,334 254,334 C287.594377,334 317.572756,325.463233 337.189517,312.109245 C347.200934,325.152664 366.649063,334 389,334 C421.5848,334 448,315.195959 448,292 C448,268.804041 421.5848,250 389,250 C376.786229,250 365.439274,252.641926 356.025324,257.166794 C342.316332,233.29868 301.821849,216 254,216 C254,195.783748 235.560174,177.942302 207.448897,167.310562 C208.466789,163.649911 209,159.868433 209,156 C209,125.735758 176.364666,100.793659 134.32562,97.3945988 C126.875663,74.9170866 108.566261,55.5741421 83.7234317,42.5515931 C64.3958059,22.2361354 34.5459509,7.74742655 -8.81961171e-13,3.37603055 L-8.81072992e-13,214.772393 Z" id="Combined-Shape" fill="url(#linearGradient-1)"></path>
                <path d="M3.55271368e-15,283.739588 C13.1498629,300.848977 46.4713144,313 85.5,313 C104.238929,313 121.662186,310.198862 136.168809,305.392694 C145.251949,325.764866 181.798067,341 225.5,341 C276.034055,341 317,320.628956 317,295.5 C317,270.371044 276.034055,250 225.5,250 C206.761071,250 189.337814,252.801138 174.831191,257.607306 C168.565251,243.553707 149.230137,231.944738 123.492383,226.09545 C129.557249,219.670289 133,212.315248 133,204.5 C133,203.69899 132.963834,202.902815 132.892387,202.11198 C133.620796,199.636789 134,197.09374 134,194.5 C134,169.371044 98.4066376,149 54.5,149 C33.4062737,149 14.2312975,153.70175 2.66453526e-15,161.374002 L0,238.15598 C2.90483156,239.669382 6.00634862,241.061273 9.28002518,242.317617 C5.55711516,245.098398 2.43322832,248.09452 -1.02140518e-14,251.260412 L0,283.739588 Z" id="Combined-Shape" fill="#DDF7F7"></path>
                <path d="M1026.00001,156.571174 C1011.56426,161.963845 995.259344,165 978,165 C977.665279,165 977.330916,164.998858 976.996919,164.996579 C966.099091,188.780217 934.179632,206 896.5,206 C896.33322,206 896.166553,205.999663 896,205.998989 C896,238.5848 858.168061,265 811.5,265 C796.989348,265 783.332968,262.446192 771.402499,257.947176 C771.797035,260.259714 772,262.613308 772,265 C772,297.5848 734.168061,324 687.5,324 C655.5916,324 627.813982,311.651209 613.435255,293.424852 C602.652249,301.770358 587.184046,307 570,307 C537.4152,307 511,288.195959 511,265 C511,241.804041 537.4152,223 570,223 C587.184046,223 602.652249,228.229642 613.435255,236.575148 C627.813982,218.348791 655.5916,206 687.5,206 C702.010652,206 715.667032,208.553808 727.597501,213.052824 C727.202965,210.740286 727,208.386692 727,206 C727,173.4152 764.831939,147 811.5,147 C811.66678,147 811.833447,147.000337 812,147.001011 C812,120.56293 836.903197,98.1870531 871.223917,90.6848497 C871.075403,88.9707873 871,87.2419362 871,85.5 C871,41.5933624 918.905532,6 978,6 C991.846481,6 1005.07867,7.95413338 1017.22425,11.5114677 C1018.8095,7.39755034 1021.86695,3.67730135 1026,0.615122439 L1026,156.571178 Z" id="Combined-Shape" fill="url(#linearGradient-2)"></path>
                <path d="M805.997014,341 C805.999003,340.833498 806,340.666831 806,340.5 C806,339.807251 805.982813,339.117315 805.948721,338.430389 C813.711253,340.100905 821.955758,341 830.5,341 C872.170447,341 906.711563,319.614716 912.983542,291.654672 C935.738927,286.991472 954.469586,275.723598 964.661466,261.01359 C975.772888,264.846803 988.277533,267 1001.5,267 C1010.02543,267 1018.25244,266.104859 1026,264.441412 L1026,91.7606314 C986.30368,96.2815545 956,120.411427 956,149.5 C956,152.718476 956.370981,155.876248 957.084617,158.95347 C943.893034,164.770077 933.187685,173.100989 926.338538,182.986404 C915.227104,179.153195 902.722463,177 889.5,177 C847.829553,177 813.288437,198.385284 807.016458,226.345328 C772.333298,233.452855 747,255.903738 747,282.5 C747,283.192749 747.017187,283.882685 747.051279,284.569611 C739.288747,282.899095 731.044242,282 722.5,282 C676.384223,282 639,308.191342 639,340.5 C639,340.666831 639.000997,340.833498 639.002986,341 L805.997226,341 Z" id="Combined-Shape" fill="#DDF7F7"></path>
                <mask id="mask-5" fill="white">
                    <use xlink:href="#path-4"></use>
                </mask>
                <use id="Combined-Shape" fill="url(#linearGradient-3)" xlink:href="#path-4"></use>
            </g>
        </g>
    </g>
</svg>
